<svg width="248" height="77" viewBox="0 0 248 77" fill="none" xmlns="http://www.w3.org/2000/svg">
<path fill-rule="evenodd" clip-rule="evenodd" d="M0 77V0H248V77H0Z" fill="#3C72FC"/>
<path d="M46.332 31.4V44H49.464V31.4H46.332ZM50.832 44C52.212 44 53.406 43.742 54.414 43.226C55.422 42.71 56.202 41.984 56.754 41.048C57.306 40.1 57.582 38.984 57.582 37.7C57.582 36.404 57.306 35.288 56.754 34.352C56.202 33.416 55.422 32.69 54.414 32.174C53.406 31.658 52.212 31.4 50.832 31.4H48.348V34.1H50.724C51.204 34.1 51.666 34.16 52.11 34.28C52.566 34.4 52.962 34.598 53.298 34.874C53.646 35.15 53.922 35.522 54.126 35.99C54.33 36.446 54.432 37.016 54.432 37.7C54.432 38.384 54.33 38.96 54.126 39.428C53.922 39.884 53.646 40.25 53.298 40.526C52.962 40.802 52.566 41 52.11 41.12C51.666 41.24 51.204 41.3 50.724 41.3H48.348V44H50.832ZM60.1452 31.4V44H63.2412V31.4H60.1452ZM67.9088 39.572L65.7848 41.102C66.0728 41.702 66.4748 42.254 66.9908 42.758C67.5068 43.262 68.1128 43.664 68.8088 43.964C69.5168 44.252 70.2788 44.396 71.0948 44.396C71.6828 44.396 72.2528 44.306 72.8048 44.126C73.3688 43.958 73.8668 43.706 74.2988 43.37C74.7428 43.034 75.0908 42.62 75.3428 42.128C75.6068 41.624 75.7388 41.054 75.7388 40.418C75.7388 39.89 75.6548 39.422 75.4868 39.014C75.3188 38.606 75.0848 38.246 74.7848 37.934C74.4968 37.622 74.1608 37.358 73.7768 37.142C73.3928 36.914 72.9788 36.716 72.5348 36.548C71.9468 36.344 71.4428 36.152 71.0228 35.972C70.6148 35.792 70.2968 35.594 70.0688 35.378C69.8528 35.162 69.7448 34.91 69.7448 34.622C69.7448 34.346 69.8588 34.118 70.0868 33.938C70.3148 33.746 70.6448 33.65 71.0768 33.65C71.4008 33.65 71.7008 33.716 71.9768 33.848C72.2648 33.968 72.5228 34.142 72.7508 34.37C72.9908 34.586 73.2008 34.844 73.3808 35.144L75.7028 33.848C75.4868 33.416 75.1748 32.99 74.7668 32.57C74.3588 32.15 73.8428 31.802 73.2188 31.526C72.6068 31.25 71.8808 31.112 71.0408 31.112C70.2248 31.112 69.4808 31.256 68.8088 31.544C68.1488 31.82 67.6208 32.228 67.2248 32.768C66.8408 33.308 66.6488 33.95 66.6488 34.694C66.6488 35.318 66.7628 35.852 66.9908 36.296C67.2188 36.728 67.5068 37.1 67.8548 37.412C68.2028 37.712 68.5688 37.958 68.9528 38.15C69.3488 38.342 69.6968 38.492 69.9968 38.6C70.6088 38.828 71.1008 39.032 71.4728 39.212C71.8448 39.392 72.1148 39.584 72.2828 39.788C72.4508 39.98 72.5348 40.238 72.5348 40.562C72.5348 40.946 72.3908 41.252 72.1028 41.48C71.8148 41.696 71.4488 41.804 71.0048 41.804C70.5848 41.804 70.1828 41.714 69.7988 41.534C69.4268 41.354 69.0788 41.096 68.7548 40.76C68.4428 40.424 68.1608 40.028 67.9088 39.572ZM80.9768 37.7C80.9768 36.92 81.1508 36.254 81.4988 35.702C81.8468 35.15 82.3028 34.73 82.8668 34.442C83.4428 34.154 84.0728 34.01 84.7568 34.01C85.3568 34.01 85.8848 34.088 86.3408 34.244C86.7968 34.388 87.2048 34.592 87.5648 34.856C87.9248 35.108 88.2428 35.378 88.5188 35.666V32.39C88.0148 31.994 87.4628 31.682 86.8628 31.454C86.2628 31.226 85.5008 31.112 84.5768 31.112C83.5688 31.112 82.6388 31.268 81.7868 31.58C80.9348 31.892 80.2028 32.342 79.5908 32.93C78.9788 33.518 78.5048 34.214 78.1688 35.018C77.8328 35.822 77.6648 36.716 77.6648 37.7C77.6648 38.684 77.8328 39.578 78.1688 40.382C78.5048 41.186 78.9788 41.882 79.5908 42.47C80.2028 43.058 80.9348 43.508 81.7868 43.82C82.6388 44.132 83.5688 44.288 84.5768 44.288C85.5008 44.288 86.2628 44.174 86.8628 43.946C87.4628 43.718 88.0148 43.406 88.5188 43.01V39.734C88.2428 40.022 87.9248 40.292 87.5648 40.544C87.2048 40.796 86.7968 41 86.3408 41.156C85.8848 41.312 85.3568 41.39 84.7568 41.39C84.0728 41.39 83.4428 41.246 82.8668 40.958C82.3028 40.67 81.8468 40.25 81.4988 39.698C81.1508 39.134 80.9768 38.468 80.9768 37.7ZM94.1199 37.7C94.1199 36.956 94.2639 36.302 94.5519 35.738C94.8519 35.162 95.2659 34.712 95.7939 34.388C96.3339 34.064 96.9639 33.902 97.6839 33.902C98.4159 33.902 99.0459 34.064 99.5739 34.388C100.102 34.712 100.51 35.162 100.798 35.738C101.086 36.302 101.23 36.956 101.23 37.7C101.23 38.444 101.08 39.104 100.78 39.68C100.492 40.244 100.078 40.688 99.5379 41.012C99.0099 41.336 98.3919 41.498 97.6839 41.498C96.9639 41.498 96.3339 41.336 95.7939 41.012C95.2659 40.688 94.8519 40.244 94.5519 39.68C94.2639 39.104 94.1199 38.444 94.1199 37.7ZM90.8979 37.7C90.8979 38.672 91.0599 39.566 91.3839 40.382C91.7199 41.198 92.1879 41.906 92.7879 42.506C93.3999 43.106 94.1199 43.574 94.9479 43.91C95.7759 44.234 96.6879 44.396 97.6839 44.396C98.6679 44.396 99.5739 44.234 100.402 43.91C101.23 43.574 101.944 43.106 102.544 42.506C103.156 41.906 103.624 41.198 103.948 40.382C104.284 39.566 104.452 38.672 104.452 37.7C104.452 36.728 104.284 35.84 103.948 35.036C103.612 34.232 103.138 33.536 102.526 32.948C101.914 32.36 101.194 31.91 100.366 31.598C99.5499 31.274 98.6559 31.112 97.6839 31.112C96.7239 31.112 95.8299 31.274 95.0019 31.598C94.1739 31.91 93.4539 32.36 92.8419 32.948C92.2299 33.536 91.7499 34.232 91.4019 35.036C91.0659 35.84 90.8979 36.728 90.8979 37.7ZM111.742 38.924L108.664 31.4H105.118L111.742 44.792L118.384 31.4H114.82L111.742 38.924ZM122.332 44H128.686V41.498H122.332V44ZM122.332 33.902H128.686V31.4H122.332V33.902ZM122.332 38.6H128.326V36.152H122.332V38.6ZM120.316 31.4V44H123.232V31.4H120.316ZM134.924 38.294L138.452 44H142.016L138.074 38.294H134.924ZM131.774 31.4V44H134.816V31.4H131.774ZM133.682 33.974H136.148C136.556 33.974 136.904 34.04 137.192 34.172C137.492 34.304 137.72 34.496 137.876 34.748C138.032 34.988 138.11 35.282 138.11 35.63C138.11 35.978 138.032 36.278 137.876 36.53C137.72 36.77 137.492 36.956 137.192 37.088C136.904 37.208 136.556 37.268 136.148 37.268H133.682V39.626H136.364C137.444 39.626 138.344 39.452 139.064 39.104C139.784 38.756 140.33 38.276 140.702 37.664C141.074 37.04 141.26 36.326 141.26 35.522C141.26 34.706 141.074 33.992 140.702 33.38C140.33 32.756 139.784 32.27 139.064 31.922C138.344 31.574 137.444 31.4 136.364 31.4H133.682V33.974ZM153.289 37.574L156.727 42.83L160.183 37.574L160.939 44H164.143L162.109 30.77L156.727 38.456L151.363 30.77L149.329 44H152.533L153.289 37.574ZM169.194 37.7C169.194 36.956 169.338 36.302 169.626 35.738C169.926 35.162 170.34 34.712 170.868 34.388C171.408 34.064 172.038 33.902 172.758 33.902C173.49 33.902 174.12 34.064 174.648 34.388C175.176 34.712 175.584 35.162 175.872 35.738C176.16 36.302 176.304 36.956 176.304 37.7C176.304 38.444 176.154 39.104 175.854 39.68C175.566 40.244 175.152 40.688 174.612 41.012C174.084 41.336 173.466 41.498 172.758 41.498C172.038 41.498 171.408 41.336 170.868 41.012C170.34 40.688 169.926 40.244 169.626 39.68C169.338 39.104 169.194 38.444 169.194 37.7ZM165.972 37.7C165.972 38.672 166.134 39.566 166.458 40.382C166.794 41.198 167.262 41.906 167.862 42.506C168.474 43.106 169.194 43.574 170.022 43.91C170.85 44.234 171.762 44.396 172.758 44.396C173.742 44.396 174.648 44.234 175.476 43.91C176.304 43.574 177.018 43.106 177.618 42.506C178.23 41.906 178.698 41.198 179.022 40.382C179.358 39.566 179.526 38.672 179.526 37.7C179.526 36.728 179.358 35.84 179.022 35.036C178.686 34.232 178.212 33.536 177.6 32.948C176.988 32.36 176.268 31.91 175.44 31.598C174.624 31.274 173.73 31.112 172.758 31.112C171.798 31.112 170.904 31.274 170.076 31.598C169.248 31.91 168.528 32.36 167.916 32.948C167.304 33.536 166.824 34.232 166.476 35.036C166.14 35.84 165.972 36.728 165.972 37.7ZM185.237 38.294L188.765 44H192.329L188.387 38.294H185.237ZM182.087 31.4V44H185.129V31.4H182.087ZM183.995 33.974H186.461C186.869 33.974 187.217 34.04 187.505 34.172C187.805 34.304 188.033 34.496 188.189 34.748C188.345 34.988 188.423 35.282 188.423 35.63C188.423 35.978 188.345 36.278 188.189 36.53C188.033 36.77 187.805 36.956 187.505 37.088C187.217 37.208 186.869 37.268 186.461 37.268H183.995V39.626H186.677C187.757 39.626 188.657 39.452 189.377 39.104C190.097 38.756 190.643 38.276 191.015 37.664C191.387 37.04 191.573 36.326 191.573 35.522C191.573 34.706 191.387 33.992 191.015 33.38C190.643 32.756 190.097 32.27 189.377 31.922C188.657 31.574 187.757 31.4 186.677 31.4H183.995V33.974ZM196.37 44H202.724V41.498H196.37V44ZM196.37 33.902H202.724V31.4H196.37V33.902ZM196.37 38.6H202.364V36.152H196.37V38.6ZM194.354 31.4V44H197.27V31.4H194.354Z" fill="#FCFCFC"/>
</svg>
